:FULLY-SPECIFIED
:FORCE-ALL-JOINTS-BE-3DOF
:DEGREES
3160
root 0.95161 16.9233 -33.3627 6.06094 5.21496 -3.75743
lfemur -18.6251 -2.46471 -8.23714
ltibia 35.2657 0 0
lfoot -16.3905 7.66345 -0.000963179
ltoes -40.6687 0 0
rfemur -19.4091 -0.20327 18.4959
rtibia 39.0033 0 0
rfoot -12.155 -21.0631 -0.000692302
rtoes -16.3984 0 0
lowerback 5.78245 1.52476 -0.530205
upperback -4.08636 2.13045 1.85252
thorax -7.625 1.13142 1.98063
lowerneck -5.41225 -5.14644 -7.88924
upperneck 9.35382 -6.79992 5.98428
head 4.15005 -3.34233 2.73127
lclavicle 5.92273e-16 -2.71655e-15 -1.45118e-32
lhumerus -33.4271 -18.3556 94.8022
lradius 51.4401 0 0
lwrist -8.98357 0 0
lhand -34.0946 29.411 -0.00174565
lfingers 7.12502 0 0
lthumb -7.27084 59.2656 -0.00171296
rclavicle 5.92273e-16 -2.71655e-15 -1.45118e-32
rhumerus -35.5476 14.0288 -81.3638
rradius 50.4644 0 0
rwrist 1.68416 0 0
rhand -29.2652 -34.1382 0.000231296
rfingers 7.12502 0 0
rthumb -2.60777 -64.1013 0.000215875
3161
root 0.955966 16.9249 -33.3593 6.05751 5.17581 -3.77964
lfemur -18.5788 -2.47885 -8.24061
ltibia 35.232 0 0
lfoot -16.3779 7.71491 -0.00135101
ltoes -40.6544 0 0
rfemur -19.3606 -0.179378 18.4967
rtibia 38.9224 0 0
rfoot -12.1292 -21.0406 -0.000974157
rtoes -16.3956 0 0
lowerback 5.76208 1.53055 -0.536706
upperback -4.09935 2.13779 1.85246
thorax -7.62765 1.13548 1.9836
lowerneck -5.44057 -5.1431 -7.88302
upperneck 9.42045 -6.79626 5.98365
head 4.17288 -3.33991 2.72677
lclavicle 5.20087e-16 -2.86121e-15 -1.95995e-32
lhumerus -33.4341 -18.1984 94.7388
lradius 51.1648 0 0
lwrist -9.08283 0 0
lhand -34.1145 29.3875 -0.00242845
lfingers 7.12502 0 0
lthumb -7.29003 59.2415 -0.00238307
rclavicle 5.20087e-16 -2.86121e-15 -1.95995e-32
rhumerus -35.5515 13.8455 -81.3325
rradius 50.0776 0 0
rwrist 1.80712 0 0
rhand -29.2373 -34.1485 0.000334678
rfingers 7.12502 0 0
rthumb -2.58091 -64.1116 0.000312773
3162
root 0.960323 16.9265 -33.3559 6.05473 5.14337 -3.79781
lfemur -18.5407 -2.49024 -8.24351
ltibia 35.2043 0 0
lfoot -16.3676 7.75722 -0.00167238
ltoes -40.6425 0 0
rfemur -19.321 -0.159785 18.4974
rtibia 38.8561 0 0
rfoot -12.1081 -21.0221 -0.00120861
rtoes -16.3933 0 0
lowerback 5.74542 1.53533 -0.542032
upperback -4.11005 2.14386 1.85243
thorax -7.6299 1.13883 1.98604
lowerneck -5.46372 -5.14026 -7.87787
upperneck 9.47514 -6.79313 5.98312
head 4.19161 -3.33786 2.72309
lclavicle 4.56895e-16 -2.97698e-15 -2.33814e-32
lhumerus -33.4391 -18.0688 94.6865
lradius 50.9366 0 0
lwrist -9.16533 0 0
lhand -34.1306 29.3688 -0.00298755
lfingers 7.12502 0 0
lthumb -7.30562 59.2224 -0.00293183
rclavicle 4.56895e-16 -2.97698e-15 -2.33814e-32
rhumerus -35.5547 13.6944 -81.3066
rradius 49.7593 0 0
rwrist 1.90736 0 0
rhand -29.2135 -34.1566 0.000430347
rfingers 7.12502 0 0
rthumb -2.55789 -64.1197 0.000402664
3163
root 0.964679 16.9281 -33.3525 6.05258 5.11703 -3.81225
lfemur -18.5101 -2.49903 -8.24591
ltibia 35.1822 0 0
lfoot -16.3595 7.79113 -0.00192645
ltoes -40.6326 0 0
rfemur -19.2895 -0.144165 18.4979
rtibia 38.8035 0 0
rfoot -12.0914 -21.0071 -0.00139416
rtoes -16.3914 0 0
lowerback 5.73222 1.53921 -0.54627
upperback -4.11865 2.14879 1.85243
thorax -7.63181 1.14155 1.98799
lowerneck -5.48207 -5.13783 -7.8737
upperneck 9.51882 -6.79044 5.98268
head 4.20655 -3.33614 2.7202
lclavicle 4.00644e-16 -3.06505e-15 -2.59281e-32
lhumerus -33.442 -17.9644 94.6444
lradius 50.7512 0 0
lwrist -9.23272 0 0
lhand -34.1432 29.3547 -0.00342675
lfingers 7.12502 0 0
lthumb -7.31782 59.2079 -0.00336292
rclavicle 4.00644e-16 -3.06505e-15 -2.59281e-32
rhumerus -35.5569 13.573 -81.2857
rradius 49.5043 0 0
rwrist 1.98638 0 0
rhand -29.193 -34.1625 0.000519574
rfingers 7.12502 0 0
rthumb -2.53806 -64.1257 0.000486705
3164
root 0.969035 16.9297 -33.3491 6.05101 5.09614 -3.82324
lfemur -18.4863 -2.50535 -8.24786
ltibia 35.1653 0 0
lfoot -16.3534 7.81736 -0.00211382
ltoes -40.6247 0 0
rfemur -19.2657 -0.132193 18.4983
rtibia 38.7634 0 0
rfoot -12.0788 -20.9953 -0.00153058
rtoes -16.3899 0 0
lowerback 5.72219 1.54226 -0.549507
upperback -4.12533 2.15269 1.85246
thorax -7.63345 1.1437 1.9895
lowerneck -5.49599 -5.13575 -7.87041
upperneck 9.55242 -6.78811 5.9823
head 4.21803 -3.33468 2.71803
lclavicle 3.49278e-16 -3.12663e-15 -2.72904e-32
lhumerus -33.4424 -17.883 94.6116
lradius 50.604 0 0
lwrist -9.28665 0 0
lhand -34.1526 29.3451 -0.00375089
lfingers 7.12502 0 0
lthumb -7.32685 59.198 -0.00368109
rclavicle 3.49278e-16 -3.12663e-15 -2.72904e-32
rhumerus -35.5583 13.4785 -81.2694
rradius 49.3069 0 0
rwrist 2.0457 0 0
rhand -29.1751 -34.1664 0.000604199
rfingers 7.12502 0 0
rthumb -2.5208 -64.1296 0.000566608
3165
root 0.973391 16.9313 -33.3457 6.04998 5.0801 -3.83109
lfemur -18.4688 -2.50935 -8.24941
ltibia 35.153 0 0
lfoot -16.3491 7.83665 -0.00223621
ltoes -40.6183 0 0
rfemur -19.2487 -0.123543 18.4985
rtibia 38.7348 0 0
rfoot -12.07 -20.9864 -0.00161865
rtoes -16.3888 0 0
lowerback 5.71508 1.54459 -0.551829
upperback -4.13029 2.15567 1.85254
thorax -7.63486 1.14534 1.99061
lowerneck -5.50585 -5.13393 -7.8679
upperneck 9.57684 -6.78604 5.98198
head 4.22636 -3.33344 2.71654
lclavicle 3.00743e-16 -3.16292e-15 -2.75049e-32
lhumerus -33.4404 -17.8221 94.5871
lradius 50.4908 0 0
lwrist -9.32876 0 0
lhand -34.1589 29.3397 -0.00396575
lfingers 7.12502 0 0
lthumb -7.33294 59.1924 -0.003892
rclavicle 3.00743e-16 -3.16292e-15 -2.75049e-32
rhumerus -35.5587 13.4082 -81.2571
rradius 49.1616 0 0
rwrist 2.08682 0 0
rhand -29.1592 -34.1683 0.000686501
rfingers 7.12502 0 0
rthumb -2.50548 -64.1315 0.000644504
3166
root 0.977747 16.9329 -33.3423 6.04945 5.06828 -3.83607
lfemur -18.4568 -2.51115 -8.25063
ltibia 35.145 0 0
lfoot -16.3464 7.84973 -0.00229629
ltoes -40.6133 0 0
rfemur -19.2381 -0.117889 18.4985
rtibia 38.7166 0 0
rfoot -12.0646 -20.9801 -0.00165994
rtoes -16.388 0 0
lowerback 5.71062 1.54628 -0.553322
upperback -4.13372 2.15786 1.85265
thorax -7.63611 1.14653 1.99136
lowerneck -5.51202 -5.13232 -7.86608
upperneck 9.59302 -6.78417 5.9817
head 4.23185 -3.33237 2.71565
lclavicle 2.52986e-16 -3.17513e-15 -2.65983e-32
lhumerus -33.4356 -17.7795 94.57
lradius 50.4071 0 0
lwrist -9.3607 0 0
lhand -34.1624 29.3384 -0.00407789
lfingers 7.12502 0 0
lthumb -7.33631 59.191 -0.00400208
rclavicle 2.52986e-16 -3.17513e-15 -2.65983e-32
rhumerus -35.5583 13.3596 -81.2484
rradius 49.0629 0 0
rwrist 2.11127 0 0
rhand -29.1447 -34.1683 0.000769064
rfingers 7.12502 0 0
rthumb -2.49145 -64.1315 0.000722825
